<svg width="112" height="9" viewBox="0 0 112 9" fill="none" xmlns="http://www.w3.org/2000/svg">
<path d="M0 0.119318H1.93466L4.52557 6.44318H4.62784L7.21875 0.119318H9.15341V8.84659H7.63636V2.85085H7.5554L5.14347 8.82102H4.00994L1.59801 2.83807H1.51705V8.84659H0V0.119318Z" fill="white"/>
<path d="M11.9957 8.84659H10.3082L13.3807 0.119318H15.3324L18.4091 8.84659H16.7216L14.3906 1.90909H14.3224L11.9957 8.84659ZM12.0511 5.42472H16.6534V6.6946H12.0511V5.42472Z" fill="white"/>
<path d="M19.5586 8.84659V0.119318H21.1396V4.12926H21.2461L24.6509 0.119318H26.5813L23.2063 4.03551L26.6112 8.84659H24.7106L22.1069 5.10511L21.1396 6.24716V8.84659H19.5586Z" fill="white"/>
<path d="M27.6797 8.84659V0.119318H33.3558V1.4446H29.2607V3.81392H33.0618V5.1392H29.2607V7.52131H33.3899V8.84659H27.6797Z" fill="white"/>
<path d="M39.782 8.84659L37.3189 0.119318H39.0192L40.5916 6.53267H40.6726L42.3516 0.119318H43.8984L45.5817 6.53693H45.6584L47.2308 0.119318H48.9311L46.468 8.84659H44.9084L43.1612 2.72301H43.093L41.3416 8.84659H39.782Z" fill="white"/>
<path d="M57.3569 4.48295C57.3569 5.4233 57.1808 6.22869 56.8285 6.89915C56.479 7.56676 56.0018 8.07813 55.3967 8.43324C54.7944 8.78835 54.1112 8.96591 53.3469 8.96591C52.5827 8.96591 51.8981 8.78835 51.293 8.43324C50.6907 8.07528 50.2134 7.5625 49.8611 6.89489C49.5117 6.22443 49.337 5.42045 49.337 4.48295C49.337 3.54261 49.5117 2.73864 49.8611 2.07102C50.2134 1.40057 50.6907 0.887784 51.293 0.53267C51.8981 0.177557 52.5827 0 53.3469 0C54.1112 0 54.7944 0.177557 55.3967 0.53267C56.0018 0.887784 56.479 1.40057 56.8285 2.07102C57.1808 2.73864 57.3569 3.54261 57.3569 4.48295ZM55.7674 4.48295C55.7674 3.82102 55.6637 3.26278 55.4563 2.80824C55.2518 2.35085 54.9677 2.00568 54.604 1.77273C54.2404 1.53693 53.8214 1.41903 53.3469 1.41903C52.8725 1.41903 52.4535 1.53693 52.0898 1.77273C51.7262 2.00568 51.4407 2.35085 51.2333 2.80824C51.0288 3.26278 50.9265 3.82102 50.9265 4.48295C50.9265 5.14489 51.0288 5.70455 51.2333 6.16193C51.4407 6.61648 51.7262 6.96165 52.0898 7.19744C52.4535 7.4304 52.8725 7.54688 53.3469 7.54688C53.8214 7.54688 54.2404 7.4304 54.604 7.19744C54.9677 6.96165 55.2518 6.61648 55.4563 6.16193C55.6637 5.70455 55.7674 5.14489 55.7674 4.48295Z" fill="white"/>
<path d="M58.8516 8.84659V0.119318H62.1243C62.7947 0.119318 63.3572 0.235795 63.8118 0.46875C64.2692 0.701705 64.6144 1.02841 64.8473 1.44886C65.0831 1.86648 65.201 2.35369 65.201 2.91051C65.201 3.47017 65.0817 3.95597 64.843 4.3679C64.6072 4.77699 64.2592 5.09375 63.799 5.31818C63.3388 5.53977 62.7734 5.65057 62.103 5.65057H59.772V4.33807H61.8899C62.282 4.33807 62.603 4.28409 62.853 4.17614C63.103 4.06534 63.2876 3.90483 63.407 3.6946C63.5291 3.48153 63.5902 3.22017 63.5902 2.91051C63.5902 2.60085 63.5291 2.33665 63.407 2.1179C63.2848 1.89631 63.0987 1.72869 62.8487 1.61506C62.5987 1.49858 62.2763 1.44034 61.8814 1.44034H60.4325V8.84659H58.8516ZM63.3601 4.89205L65.5206 8.84659H63.7564L61.6342 4.89205H63.3601Z" fill="white"/>
<path d="M66.6562 8.84659V0.119318H68.2372V4.12926H68.3438L71.7486 0.119318H73.679L70.304 4.03551L73.7088 8.84659H71.8082L69.2045 5.10511L68.2372 6.24716V8.84659H66.6562Z" fill="white"/>
<path d="M77.7539 8.84659V0.119318H83.3448V1.4446H79.3349V3.81392H82.9613V5.1392H79.3349V8.84659H77.7539Z" fill="white"/>
<path d="M84.7852 8.84659V0.119318H86.3661V7.52131H90.2099V8.84659H84.7852Z" fill="white"/>
<path d="M99.0405 4.48295C99.0405 5.4233 98.8644 6.22869 98.5121 6.89915C98.1626 7.56676 97.6854 8.07813 97.0803 8.43324C96.478 8.78835 95.7947 8.96591 95.0305 8.96591C94.2663 8.96591 93.5817 8.78835 92.9766 8.43324C92.3743 8.07528 91.897 7.5625 91.5447 6.89489C91.1953 6.22443 91.0206 5.42045 91.0206 4.48295C91.0206 3.54261 91.1953 2.73864 91.5447 2.07102C91.897 1.40057 92.3743 0.887784 92.9766 0.53267C93.5817 0.177557 94.2663 0 95.0305 0C95.7947 0 96.478 0.177557 97.0803 0.53267C97.6854 0.887784 98.1626 1.40057 98.5121 2.07102C98.8644 2.73864 99.0405 3.54261 99.0405 4.48295ZM97.451 4.48295C97.451 3.82102 97.3473 3.26278 97.1399 2.80824C96.9354 2.35085 96.6513 2.00568 96.2876 1.77273C95.924 1.53693 95.505 1.41903 95.0305 1.41903C94.5561 1.41903 94.1371 1.53693 93.7734 1.77273C93.4098 2.00568 93.1243 2.35085 92.9169 2.80824C92.7124 3.26278 92.6101 3.82102 92.6101 4.48295C92.6101 5.14489 92.7124 5.70455 92.9169 6.16193C93.1243 6.61648 93.4098 6.96165 93.7734 7.19744C94.1371 7.4304 94.5561 7.54688 95.0305 7.54688C95.505 7.54688 95.924 7.4304 96.2876 7.19744C96.6513 6.96165 96.9354 6.61648 97.1399 6.16193C97.3473 5.70455 97.451 5.14489 97.451 4.48295Z" fill="white"/>
<path d="M102.149 8.84659L99.6861 0.119318H101.386L102.959 6.53267H103.04L104.719 0.119318H106.266L107.949 6.53693H108.026L109.598 0.119318H111.298L108.835 8.84659H107.276L105.528 2.72301H105.46L103.709 8.84659H102.149Z" fill="white"/>
</svg>
