<svg width="16" height="18" viewBox="0 0 16 18" fill="none" xmlns="http://www.w3.org/2000/svg">
<path d="M8.4388 17.0862L8.42916 17.0878L8.37209 17.1159L8.35602 17.1191L8.34476 17.1159L8.2877 17.087C8.27912 17.0848 8.27269 17.0864 8.26841 17.0918L8.26519 17.0998L8.25153 17.4438L8.25555 17.4599L8.26359 17.4704L8.34718 17.5298L8.35923 17.5331L8.36888 17.5298L8.45247 17.4704L8.46211 17.4575L8.46533 17.4438L8.45166 17.1006C8.44952 17.0921 8.44523 17.0872 8.4388 17.0862ZM8.65099 16.9953L8.63974 16.997L8.49185 17.0717L8.48381 17.0797L8.4814 17.0886L8.49587 17.4342L8.49989 17.4438L8.50632 17.4503L8.66787 17.5242C8.67805 17.5269 8.68582 17.5248 8.69118 17.5178L8.6944 17.5065L8.66707 17.013C8.66439 17.0029 8.65903 16.997 8.65099 16.9953ZM8.07631 16.997C8.07277 16.9948 8.06854 16.9941 8.06449 16.995C8.06045 16.9959 8.05691 16.9983 8.05461 17.0018L8.04979 17.013L8.02246 17.5065C8.023 17.5162 8.02755 17.5226 8.03612 17.5258L8.04818 17.5242L8.20973 17.4495L8.21777 17.443L8.22018 17.4342L8.23465 17.0886L8.23224 17.0789L8.2242 17.0709L8.07631 16.997Z" fill="white"/>
<path d="M5.6362 2.77133C6.11684 1.36477 8.06031 1.32217 8.63016 2.64353L8.67839 2.77213L9.32702 4.66898C9.47566 5.104 9.71587 5.50208 10.0314 5.83637C10.347 6.17066 10.7306 6.43338 11.1564 6.60682L11.3308 6.67193L13.2276 7.31975C14.6342 7.80039 14.6768 9.74386 13.3562 10.3137L13.2276 10.3619L11.3308 11.0106C10.8956 11.1591 10.4974 11.3993 10.1629 11.7149C9.8285 12.0304 9.56565 12.4141 9.39212 12.8399L9.32702 13.0135L8.67919 14.9112C8.19855 16.3177 6.25508 16.3603 5.68603 15.0398L5.6362 14.9112L4.98837 13.0143C4.83983 12.5792 4.59966 12.1809 4.28408 11.8465C3.9685 11.512 3.58486 11.2492 3.15904 11.0757L2.98543 11.0106L1.08858 10.3627C-0.318785 9.8821 -0.361384 7.93864 0.959981 7.36958L1.08858 7.31975L2.98543 6.67193C3.42045 6.52328 3.81853 6.28307 4.15282 5.9675C4.48711 5.65192 4.74983 5.26833 4.92327 4.84259L4.98837 4.66898L5.6362 2.77133ZM13.5877 1.45228e-07C13.7381 -1.89662e-07 13.8854 0.0421794 14.013 0.121745C14.1406 0.201311 14.2433 0.315072 14.3095 0.4501L14.348 0.544139L14.6294 1.36879L15.4548 1.6501C15.6055 1.70129 15.7376 1.79607 15.8344 1.92242C15.9311 2.04877 15.9882 2.201 15.9984 2.35983C16.0085 2.51865 15.9713 2.67691 15.8914 2.81456C15.8115 2.95221 15.6926 3.06304 15.5496 3.13302L15.4548 3.1716L14.6302 3.45291L14.3488 4.27836C14.2976 4.42901 14.2027 4.56104 14.0763 4.65772C13.9499 4.75441 13.7977 4.8114 13.6388 4.82147C13.48 4.83154 13.3218 4.79424 13.1842 4.7143C13.0466 4.63435 12.9358 4.51536 12.8659 4.3724L12.8273 4.27836L12.546 3.45371L11.7206 3.1724C11.5699 3.1212 11.4378 3.02643 11.341 2.90008C11.2443 2.77373 11.1872 2.6215 11.177 2.46267C11.1669 2.30385 11.2041 2.14559 11.284 2.00794C11.3639 1.87029 11.4828 1.75946 11.6257 1.68948L11.7206 1.6509L12.5452 1.36959L12.8265 0.544139C12.8807 0.385338 12.9833 0.247481 13.1198 0.149898C13.2563 0.0523153 13.4199 -0.000100695 13.5877 1.45228e-07Z" fill="white"/>
</svg>
