<svg width="16" height="16" viewBox="0 0 16 16" fill="none" xmlns="http://www.w3.org/2000/svg">
<path d="M15.7984 0.211428C15.662 0.076003 15.4775 0 15.2851 0C15.0928 0 14.9083 0.076003 14.7719 0.211428L0.211907 14.7624C0.0761848 14.8988 0 15.0833 0 15.2756C0 15.468 0.0761848 15.6525 0.211907 15.7889C0.348328 15.9241 0.532688 16 0.724832 16C0.916975 16 1.10133 15.9241 1.23776 15.7889L3.7646 13.242C4.18075 13.4869 4.61754 13.6857 5.07499 13.8386L10.8271 8.09098C10.9306 7.99463 11.0675 7.9422 11.209 7.94475C11.3504 7.94729 11.4854 8.00461 11.5854 8.10462C11.6854 8.20464 11.7426 8.33954 11.745 8.4809C11.7474 8.62226 11.6949 8.75903 11.5984 8.86241L6.3636 14.1447C6.66584 14.1855 6.96921 14.2048 7.27372 14.2025C12.5983 14.1957 15.9189 8.4318 13.2505 3.82706L13.2294 3.791L15.7773 1.23727C15.9158 1.10381 15.9958 0.921033 15.9998 0.728839C16.0039 0.536644 15.9311 0.35064 15.7984 0.211428ZM2.67885 5.3046C2.72918 5.25238 2.78942 5.21071 2.85606 5.18202C2.92269 5.15334 2.99438 5.13821 3.06693 5.13753C3.13949 5.13685 3.21145 5.15063 3.27861 5.17806C3.34577 5.2055 3.40678 5.24603 3.45809 5.2973C3.50939 5.34857 3.54996 5.40955 3.57741 5.47667C3.60486 5.54378 3.61865 5.61569 3.61797 5.6882C3.61729 5.7607 3.60215 5.83234 3.57345 5.89893C3.54474 5.96552 3.50304 6.02573 3.45078 6.07603L0.538654 8.98622C0.763292 9.82431 1.14654 10.6121 1.66661 11.3073L11.3145 1.66652C6.98305 -1.41918 0.933473 1.33659 0.424293 6.62705C0.403871 6.84065 0.393433 7.05471 0.392979 7.26922V7.61072L2.67885 5.3046Z" fill="url(#paint0_linear_533_5)"/>
<defs>
<linearGradient id="paint0_linear_533_5" x1="15.1248" y1="-1.20117e-06" x2="0.0102036" y2="15.3161" gradientUnits="userSpaceOnUse">
<stop stop-color="white"/>
<stop offset="1" stop-color="white" stop-opacity="0.5"/>
</linearGradient>
</defs>
</svg>
