<svg width="86" height="107" viewBox="0 0 86 107" fill="none" xmlns="http://www.w3.org/2000/svg">
<g filter="url(#filter0_d_531_7)">
<path d="M20.7709 0L28.5227 15.54L38.8807 0H20.7709ZM46.4302 0L56.7882 15.54L64.54 0H46.4302ZM42.6555 1.62399L32.0501 17.5416H53.2608L42.6555 1.62399ZM17.0632 1.65518L3.83355 17.5416H24.9948L17.0632 1.65518ZM68.2477 1.65518L60.3161 17.5416H81.4817L68.2477 1.65518ZM3.2943 21.5893L29.3539 60.7203H41.0828L26.8374 21.5893H3.2943ZM31.1739 21.5893L42.6555 53.2312L54.137 21.5893H31.1739ZM58.4736 21.5893L44.2282 60.7203H55.9571L82.0209 21.5893H58.4736ZM30.2977 64.768V75.1132H55.0132V64.768H30.2977ZM15.0634 79.1609L3 100.301H82.3129L70.247 79.1609H26.2531H15.0634ZM21.0853 89.506H64.2256V93.5538H21.0853V89.506Z" fill="url(#paint0_linear_531_7)"/>
</g>
<defs>
<filter id="filter0_d_531_7" x="0" y="0" width="85.3125" height="106.301" filterUnits="userSpaceOnUse" color-interpolation-filters="sRGB">
<feFlood flood-opacity="0" result="BackgroundImageFix"/>
<feColorMatrix in="SourceAlpha" type="matrix" values="0 0 0 0 0 0 0 0 0 0 0 0 0 0 0 0 0 0 127 0" result="hardAlpha"/>
<feOffset dy="3"/>
<feGaussianBlur stdDeviation="1.5"/>
<feComposite in2="hardAlpha" operator="out"/>
<feColorMatrix type="matrix" values="0 0 0 0 0 0 0 0 0 0 0 0 0 0 0 0 0 0 0.2 0"/>
<feBlend mode="normal" in2="BackgroundImageFix" result="effect1_dropShadow_531_7"/>
<feBlend mode="normal" in="SourceGraphic" in2="effect1_dropShadow_531_7" result="shape"/>
</filter>
<linearGradient id="paint0_linear_531_7" x1="79.4805" y1="13.039" x2="-16.1114" y2="39.1174" gradientUnits="userSpaceOnUse">
<stop stop-color="white"/>
<stop offset="0.215641" stop-color="white" stop-opacity="0.8"/>
<stop offset="1" stop-color="white" stop-opacity="0.7"/>
</linearGradient>
</defs>
</svg>
