<svg width="86" height="145" viewBox="0 0 86 145" fill="none" xmlns="http://www.w3.org/2000/svg">
<g filter="url(#filter0_d_531_7)">
<path d="M20.7709 38.3809L28.5227 53.9209L38.8807 38.3809H20.7709ZM46.4302 38.3809L56.7882 53.9209L64.54 38.3809H46.4302ZM42.6555 40.0049L32.0501 55.9224H53.2608L42.6555 40.0049ZM17.0632 40.036L3.83355 55.9224H24.9948L17.0632 40.036ZM68.2477 40.036L60.3161 55.9224H81.4817L68.2477 40.036ZM3.2943 59.9702L29.3539 99.1011H41.0828L26.8374 59.9702H3.2943ZM31.1739 59.9702L42.6555 91.612L54.137 59.9702H31.1739ZM58.4736 59.9702L44.2282 99.1011H55.9571L82.0209 59.9702H58.4736ZM30.2977 103.149V113.494H55.0132V103.149H30.2977ZM15.0634 117.542L3 138.682H82.3129L70.247 117.542H26.2531H15.0634ZM21.0853 127.887H64.2256V131.935H21.0853V127.887Z" fill="url(#paint0_linear_531_7)"/>
</g>
<g filter="url(#filter1_d_531_7)">
<path d="M41.3466 23.7836L33.6978 28.6388C33.473 28.7554 33.2645 28.8024 33.0723 28.7804C32.881 28.7569 32.6951 28.6873 32.5139 28.5721C32.3312 28.4541 32.1937 28.2872 32.1007 28.0718C32.0082 27.8563 31.9995 27.6208 32.0753 27.3651L34.111 18.262L27.3787 12.1268C27.1894 11.9642 27.0643 11.7699 27.0039 11.5439C26.9435 11.3184 26.9569 11.1021 27.0437 10.8953C27.1309 10.6885 27.2469 10.5187 27.3917 10.3858C27.5374 10.2572 27.7344 10.1704 27.9813 10.1243L36.8648 9.30918L40.3289 0.688796C40.4243 0.445076 40.5619 0.269485 40.7417 0.161538C40.9214 0.0540713 41.1232 0 41.3466 0C41.57 0 41.7722 0.0540713 41.9534 0.161538C42.1346 0.269485 42.2717 0.445076 42.3642 0.688796L45.8284 9.30918L54.7095 10.1243C54.9583 10.1684 55.1558 10.2567 55.3015 10.3882C55.4477 10.5177 55.5642 10.6871 55.6514 10.8953C55.7372 11.1021 55.7497 11.3184 55.6893 11.5439C55.6289 11.7699 55.5038 11.9642 55.3144 12.1268L48.5822 18.262L50.6174 27.3651C50.6965 27.6179 50.6884 27.8525 50.5944 28.0694C50.5005 28.2867 50.3619 28.4536 50.1793 28.5702C49.9996 28.6883 49.8136 28.7583 49.6209 28.7804C49.4301 28.8024 49.2221 28.7554 48.9973 28.6388L41.3466 23.7836Z" fill="url(#paint1_linear_531_7)"/>
</g>
<defs>
<filter id="filter0_d_531_7" x="0" y="38.3809" width="85.3125" height="106.301" filterUnits="userSpaceOnUse" color-interpolation-filters="sRGB">
<feFlood flood-opacity="0" result="BackgroundImageFix"/>
<feColorMatrix in="SourceAlpha" type="matrix" values="0 0 0 0 0 0 0 0 0 0 0 0 0 0 0 0 0 0 127 0" result="hardAlpha"/>
<feOffset dy="3"/>
<feGaussianBlur stdDeviation="1.5"/>
<feComposite in2="hardAlpha" operator="out"/>
<feColorMatrix type="matrix" values="0 0 0 0 0 0 0 0 0 0 0 0 0 0 0 0 0 0 0.2 0"/>
<feBlend mode="normal" in2="BackgroundImageFix" result="effect1_dropShadow_531_7"/>
<feBlend mode="normal" in="SourceGraphic" in2="effect1_dropShadow_531_7" result="shape"/>
</filter>
<filter id="filter1_d_531_7" x="23.9668" y="0" width="34.7598" height="34.7856" filterUnits="userSpaceOnUse" color-interpolation-filters="sRGB">
<feFlood flood-opacity="0" result="BackgroundImageFix"/>
<feColorMatrix in="SourceAlpha" type="matrix" values="0 0 0 0 0 0 0 0 0 0 0 0 0 0 0 0 0 0 127 0" result="hardAlpha"/>
<feOffset dy="3"/>
<feGaussianBlur stdDeviation="1.5"/>
<feComposite in2="hardAlpha" operator="out"/>
<feColorMatrix type="matrix" values="0 0 0 0 0 0 0 0 0 0 0 0 0 0 0 0 0 0 0.2 0"/>
<feBlend mode="normal" in2="BackgroundImageFix" result="effect1_dropShadow_531_7"/>
<feBlend mode="normal" in="SourceGraphic" in2="effect1_dropShadow_531_7" result="shape"/>
</filter>
<linearGradient id="paint0_linear_531_7" x1="79.4805" y1="51.4199" x2="-16.1114" y2="77.4983" gradientUnits="userSpaceOnUse">
<stop stop-color="white"/>
<stop offset="0.215641" stop-color="white" stop-opacity="0.5"/>
<stop offset="1" stop-color="white" stop-opacity="0.3"/>
</linearGradient>
<linearGradient id="paint1_linear_531_7" x1="54.6995" y1="3.74201" x2="21.4119" y2="15.216" gradientUnits="userSpaceOnUse">
<stop stop-color="white"/>
<stop offset="0.215641" stop-color="white" stop-opacity="0.5"/>
<stop offset="1" stop-color="white" stop-opacity="0.3"/>
</linearGradient>
</defs>
</svg>
