<svg width="13" height="13" viewBox="0 0 13 13" fill="none" xmlns="http://www.w3.org/2000/svg">
<path d="M6.59123 0.000603972C2.9356 -0.048771 -0.048771 2.9356 0.000603972 6.59123C0.049354 10.0972 2.90404 12.9519 6.40998 13.0006C10.0662 13.0506 13.05 10.0662 13 6.4106C12.9519 2.90404 10.0972 0.049354 6.59123 0.000603972ZM10.5419 10.2272C10.5294 10.2406 10.5141 10.2512 10.4972 10.2581C10.4802 10.265 10.4619 10.2681 10.4436 10.2671C10.4253 10.2662 10.4074 10.2612 10.3912 10.2526C10.375 10.2439 10.361 10.2318 10.35 10.2172C10.0704 9.85147 9.72815 9.53838 9.33904 9.29248C8.54342 8.78185 7.53529 8.5006 6.5006 8.5006C5.46592 8.5006 4.45779 8.78185 3.66217 9.29248C3.27305 9.53823 2.93074 9.85123 2.65123 10.2169C2.64025 10.2315 2.62617 10.2436 2.61 10.2523C2.59382 10.2609 2.57594 10.2659 2.55763 10.2668C2.53932 10.2678 2.52103 10.2647 2.50404 10.2578C2.48706 10.2509 2.4718 10.2403 2.45935 10.2269C1.54238 9.23697 1.02295 7.94351 1.0006 6.59435C0.949666 3.55342 3.44498 1.0081 6.48717 1.0006C9.52935 0.993104 12.0006 3.46342 12.0006 6.5006C12.0017 7.88229 11.4806 9.21336 10.5419 10.2272Z" fill="white"/>
<path d="M6.50063 3.00061C5.88438 3.00061 5.32719 3.23155 4.93125 3.65124C4.53531 4.07092 4.3375 4.65124 4.38219 5.27405C4.47281 6.50061 5.42313 7.50061 6.50063 7.50061C7.57813 7.50061 8.52656 6.50061 8.61906 5.27436C8.66531 4.65749 8.46906 4.08249 8.06656 3.65499C7.66906 3.23311 7.11281 3.00061 6.50063 3.00061Z" fill="white"/>
</svg>
