<svg width="18" height="11" viewBox="0 0 18 11" fill="none" xmlns="http://www.w3.org/2000/svg">
<path d="M17.928 0.568059C17.8367 0.34418 17.662 0.166272 17.4422 0.0732978C17.334 0.0263496 17.2178 0.00144762 17.1003 0H12.6016C12.3629 0 12.1341 0.0965306 11.9654 0.268356C11.7966 0.440181 11.7018 0.673226 11.7018 0.916224C11.7018 1.15922 11.7966 1.39227 11.9654 1.56409C12.1341 1.73592 12.3629 1.83245 12.6016 1.83245H14.9319L9.90235 6.95414L6.94221 3.9306C6.85856 3.84472 6.75905 3.77656 6.64941 3.73005C6.53977 3.68353 6.42217 3.65958 6.30339 3.65958C6.18461 3.65958 6.06701 3.68353 5.95737 3.73005C5.84773 3.77656 5.74822 3.84472 5.66458 3.9306L0.266141 9.42795C0.18181 9.51312 0.114875 9.61445 0.0691962 9.7261C0.0235176 9.83776 0 9.95751 0 10.0785C0 10.1994 0.0235176 10.3192 0.0691962 10.4308C0.114875 10.5425 0.18181 10.6438 0.266141 10.729C0.349784 10.8149 0.449296 10.883 0.558938 10.9295C0.668579 10.9761 0.78618 11 0.904956 11C1.02373 11 1.14133 10.9761 1.25097 10.9295C1.36062 10.883 1.46013 10.8149 1.54377 10.729L6.30339 5.873L9.26353 8.89653C9.34718 8.98241 9.44669 9.05057 9.55633 9.09709C9.66597 9.1436 9.78357 9.16755 9.90235 9.16755C10.0211 9.16755 10.1387 9.1436 10.2484 9.09709C10.358 9.05057 10.4575 8.98241 10.5412 8.89653L16.2005 3.12432V5.49734C16.2005 5.74034 16.2953 5.97339 16.464 6.14521C16.6328 6.31704 16.8616 6.41357 17.1003 6.41357C17.3389 6.41357 17.5677 6.31704 17.7365 6.14521C17.9052 5.97339 18 5.74034 18 5.49734V0.916224C17.9986 0.796494 17.9741 0.678209 17.928 0.568059Z" fill="white"/>
</svg>
