<svg width="20" height="18" viewBox="0 0 20 18" fill="none" xmlns="http://www.w3.org/2000/svg">
<path d="M6.106 14.9625C3.298 12.7985 0 10.2575 0 5.8525C0 0.989498 5.5 -2.4595 10 2.2165L12 4.2145C12.1422 4.34698 12.3302 4.4191 12.5245 4.41567C12.7188 4.41224 12.9042 4.33353 13.0416 4.19612C13.179 4.05871 13.2577 3.87332 13.2612 3.67902C13.2646 3.48472 13.1925 3.29667 13.06 3.1545L11.13 1.2215C15.369 -1.8815 20 1.3905 20 5.8525C20 10.2575 16.702 12.7985 13.894 14.9625C13.6007 15.1872 13.3153 15.4085 13.038 15.6265C12 16.4445 11 17.2155 10 17.2155C9 17.2155 8 16.4455 6.962 15.6255C6.684 15.4082 6.39867 15.1872 6.106 14.9625Z" fill="url(#paint0_linear_552_61)"/>
<defs>
<linearGradient id="paint0_linear_552_61" x1="20.6888" y1="1.24181" x2="3.16083" y2="19.0887" gradientUnits="userSpaceOnUse">
<stop stop-color="#E213A7"/>
<stop offset="1" stop-color="#CF0527"/>
</linearGradient>
</defs>
</svg>
