<svg width="15" height="15" viewBox="0 0 15 15" fill="none" xmlns="http://www.w3.org/2000/svg">
<path d="M7.4748 0C4.2248 0 1.4498 2.1 0.424805 5H14.5748C13.5248 2.1 10.7498 0 7.4748 0Z" fill="#FF9933"/>
<path d="M7.4748 15C10.7498 15 13.5248 12.925 14.5498 10H0.424805C1.4498 12.925 4.2248 15 7.4748 15Z" fill="#128807"/>
<path d="M0.425 5C0.15 5.775 0 6.625 0 7.5C0 8.375 0.15 9.225 0.425 10H14.575C14.85 9.225 15 8.375 15 7.5C15 6.625 14.85 5.775 14.575 5H0.425Z" fill="white"/>
<path d="M7.4751 9.5C8.57967 9.5 9.4751 8.60457 9.4751 7.5C9.4751 6.39543 8.57967 5.5 7.4751 5.5C6.37053 5.5 5.4751 6.39543 5.4751 7.5C5.4751 8.60457 6.37053 9.5 7.4751 9.5Z" fill="#010088"/>
<path d="M7.4751 9.25C8.4416 9.25 9.2251 8.4665 9.2251 7.5C9.2251 6.5335 8.4416 5.75 7.4751 5.75C6.5086 5.75 5.7251 6.5335 5.7251 7.5C5.7251 8.4665 6.5086 9.25 7.4751 9.25Z" fill="white"/>
<path d="M6.8252 5.99951C6.89423 5.99951 6.9502 5.94355 6.9502 5.87451C6.9502 5.80548 6.89423 5.74951 6.8252 5.74951C6.75616 5.74951 6.7002 5.80548 6.7002 5.87451C6.7002 5.94355 6.75616 5.99951 6.8252 5.99951Z" fill="#010088"/>
<path d="M6.4248 6.22461C6.49384 6.22461 6.5498 6.16864 6.5498 6.09961C6.5498 6.03057 6.49384 5.97461 6.4248 5.97461C6.35577 5.97461 6.2998 6.03057 6.2998 6.09961C6.2998 6.16864 6.35577 6.22461 6.4248 6.22461Z" fill="#010088"/>
<path d="M6.1001 6.5498C6.16913 6.5498 6.2251 6.49384 6.2251 6.4248C6.2251 6.35577 6.16913 6.2998 6.1001 6.2998C6.03106 6.2998 5.9751 6.35577 5.9751 6.4248C5.9751 6.49384 6.03106 6.5498 6.1001 6.5498Z" fill="#010088"/>
<path d="M5.875 6.94971C5.94404 6.94971 6 6.89374 6 6.82471C6 6.75567 5.94404 6.69971 5.875 6.69971C5.80596 6.69971 5.75 6.75567 5.75 6.82471C5.75 6.89374 5.80596 6.94971 5.875 6.94971Z" fill="#010088"/>
<path d="M5.75 7.3999C5.81904 7.3999 5.875 7.34394 5.875 7.2749C5.875 7.20587 5.81904 7.1499 5.75 7.1499C5.68096 7.1499 5.625 7.20587 5.625 7.2749C5.625 7.34394 5.68096 7.3999 5.75 7.3999Z" fill="#010088"/>
<path d="M5.75 7.84961C5.81904 7.84961 5.875 7.79364 5.875 7.72461C5.875 7.65557 5.81904 7.59961 5.75 7.59961C5.68096 7.59961 5.625 7.65557 5.625 7.72461C5.625 7.79364 5.68096 7.84961 5.75 7.84961Z" fill="#010088"/>
<path d="M5.875 8.2998C5.94404 8.2998 6 8.24384 6 8.1748C6 8.10577 5.94404 8.0498 5.875 8.0498C5.80596 8.0498 5.75 8.10577 5.75 8.1748C5.75 8.24384 5.80596 8.2998 5.875 8.2998Z" fill="#010088"/>
<path d="M6.1001 8.69971C6.16913 8.69971 6.2251 8.64374 6.2251 8.57471C6.2251 8.50567 6.16913 8.44971 6.1001 8.44971C6.03106 8.44971 5.9751 8.50567 5.9751 8.57471C5.9751 8.64374 6.03106 8.69971 6.1001 8.69971Z" fill="#010088"/>
<path d="M6.4248 9.0249C6.49384 9.0249 6.5498 8.96894 6.5498 8.8999C6.5498 8.83087 6.49384 8.7749 6.4248 8.7749C6.35577 8.7749 6.2998 8.83087 6.2998 8.8999C6.2998 8.96894 6.35577 9.0249 6.4248 9.0249Z" fill="#010088"/>
<path d="M6.8252 9.24951C6.89423 9.24951 6.9502 9.19355 6.9502 9.12451C6.9502 9.05548 6.89423 8.99951 6.8252 8.99951C6.75616 8.99951 6.7002 9.05548 6.7002 9.12451C6.7002 9.19355 6.75616 9.24951 6.8252 9.24951Z" fill="#010088"/>
<path d="M7.25 9.34961C7.31904 9.34961 7.375 9.29364 7.375 9.22461C7.375 9.15557 7.31904 9.09961 7.25 9.09961C7.18096 9.09961 7.125 9.15557 7.125 9.22461C7.125 9.29364 7.18096 9.34961 7.25 9.34961Z" fill="#010088"/>
<path d="M7.6001 9.24961C7.6001 9.17461 7.6501 9.12461 7.7001 9.09961C7.7751 9.09961 7.8251 9.14961 7.8501 9.19961C7.8501 9.27461 7.8001 9.32461 7.7501 9.34961C7.6501 9.37461 7.6001 9.32461 7.6001 9.24961Z" fill="#010088"/>
<path d="M8.1499 9.24951C8.21894 9.24951 8.2749 9.19355 8.2749 9.12451C8.2749 9.05548 8.21894 8.99951 8.1499 8.99951C8.08087 8.99951 8.0249 9.05548 8.0249 9.12451C8.0249 9.19355 8.08087 9.24951 8.1499 9.24951Z" fill="#010088"/>
<path d="M8.5498 9.0249C8.61884 9.0249 8.6748 8.96894 8.6748 8.8999C8.6748 8.83087 8.61884 8.7749 8.5498 8.7749C8.48077 8.7749 8.4248 8.83087 8.4248 8.8999C8.4248 8.96894 8.48077 9.0249 8.5498 9.0249Z" fill="#010088"/>
<path d="M8.875 8.69971C8.94404 8.69971 9 8.64374 9 8.57471C9 8.50567 8.94404 8.44971 8.875 8.44971C8.80596 8.44971 8.75 8.50567 8.75 8.57471C8.75 8.64374 8.80596 8.69971 8.875 8.69971Z" fill="#010088"/>
<path d="M9.1001 8.2998C9.16913 8.2998 9.2251 8.24384 9.2251 8.1748C9.2251 8.10577 9.16913 8.0498 9.1001 8.0498C9.03106 8.0498 8.9751 8.10577 8.9751 8.1748C8.9751 8.24384 9.03106 8.2998 9.1001 8.2998Z" fill="#010088"/>
<path d="M9.2251 7.84961C9.29413 7.84961 9.3501 7.79364 9.3501 7.72461C9.3501 7.65557 9.29413 7.59961 9.2251 7.59961C9.15606 7.59961 9.1001 7.65557 9.1001 7.72461C9.1001 7.79364 9.15606 7.84961 9.2251 7.84961Z" fill="#010088"/>
<path d="M9.22519 7.3999C9.15019 7.3999 9.1002 7.3499 9.0752 7.2999C9.0752 7.2249 9.12519 7.1749 9.17519 7.1499C9.25019 7.1499 9.3002 7.1999 9.3252 7.2499C9.3502 7.3249 9.30019 7.3749 9.22519 7.3999Z" fill="#010088"/>
<path d="M9.1001 6.94971C9.16913 6.94971 9.2251 6.89374 9.2251 6.82471C9.2251 6.75567 9.16913 6.69971 9.1001 6.69971C9.03106 6.69971 8.9751 6.75567 8.9751 6.82471C8.9751 6.89374 9.03106 6.94971 9.1001 6.94971Z" fill="#010088"/>
<path d="M8.875 6.5498C8.94404 6.5498 9 6.49384 9 6.4248C9 6.35577 8.94404 6.2998 8.875 6.2998C8.80596 6.2998 8.75 6.35577 8.75 6.4248C8.75 6.49384 8.80596 6.5498 8.875 6.5498Z" fill="#010088"/>
<path d="M8.5498 6.22461C8.61884 6.22461 8.6748 6.16864 8.6748 6.09961C8.6748 6.03057 8.61884 5.97461 8.5498 5.97461C8.48077 5.97461 8.4248 6.03057 8.4248 6.09961C8.4248 6.16864 8.48077 6.22461 8.5498 6.22461Z" fill="#010088"/>
<path d="M8.275 5.92467C8.25 5.99967 8.175 6.02467 8.1 5.99967C8.025 5.97467 8 5.89967 8.025 5.82467C8.05 5.74967 8.125 5.72467 8.2 5.74967C8.275 5.79967 8.3 5.87467 8.275 5.92467ZM7.825 5.77467C7.825 5.84967 7.75 5.89967 7.675 5.87467C7.6 5.87467 7.55 5.79967 7.575 5.72467C7.575 5.64967 7.65 5.59967 7.725 5.62467C7.8 5.64967 7.85 5.72467 7.825 5.77467ZM7.375 5.74967C7.375 5.82467 7.325 5.87467 7.275 5.89967C7.2 5.89967 7.15 5.84967 7.125 5.79967C7.125 5.72467 7.175 5.67467 7.225 5.64967C7.3 5.62467 7.375 5.67467 7.375 5.74967Z" fill="#010088"/>
<path d="M7.4751 7.87451C7.6822 7.87451 7.8501 7.70662 7.8501 7.49951C7.8501 7.2924 7.6822 7.12451 7.4751 7.12451C7.26799 7.12451 7.1001 7.2924 7.1001 7.49951C7.1001 7.70662 7.26799 7.87451 7.4751 7.87451Z" fill="#010088"/>
<path d="M7.4749 5.74951L7.4249 6.82451L7.4749 7.49951L7.5499 6.82451L7.4749 5.74951ZM7.0249 5.79951L7.2499 6.87451L7.4749 7.49951L7.3749 6.82451L7.0249 5.79951Z" fill="#010088"/>
<path d="M6.6 5.97461L7.1 6.94961L7.475 7.49961L7.2 6.87461L6.6 5.97461ZM6.25 6.24961L6.975 7.07461L7.475 7.49961L7.05 6.97461L6.25 6.24961Z" fill="#010088"/>
<path d="M5.9751 6.62451L6.8751 7.22451L7.4751 7.49951L6.9251 7.09951L5.9751 6.62451Z" fill="#010088"/>
<path d="M5.8001 7.0498L6.8251 7.3748L7.4751 7.4998L6.8501 7.2748L5.8001 7.0498ZM5.7251 7.4998L6.8251 7.5498L7.4751 7.4998L6.8251 7.4498L5.7251 7.4998Z" fill="#010088"/>
<path d="M5.7998 7.94951L6.8498 7.72451L7.4748 7.49951L6.8248 7.62451L5.7998 7.94951ZM5.9748 8.37451L6.9248 7.89951L7.4748 7.49951L6.8748 7.77451L5.9748 8.37451Z" fill="#010088"/>
<path d="M6.25 8.72451L7.05 8.02451L7.475 7.49951L6.975 7.92451L6.25 8.72451ZM6.6 9.02451L7.2 8.09951L7.475 7.49951L7.1 8.04951L6.6 9.02451Z" fill="#010088"/>
<path d="M7.0249 9.19951L7.3749 8.17451L7.4749 7.49951L7.2499 8.12451L7.0249 9.19951ZM7.4749 9.24951L7.5499 8.17451L7.4749 7.49951L7.4249 8.17451L7.4749 9.24951ZM7.9249 9.19951L7.7249 8.12451L7.4749 7.49951L7.5999 8.17451L7.9249 9.19951Z" fill="#010088"/>
<path d="M8.3501 9.02451L7.8751 8.04951L7.4751 7.49951L7.7751 8.12451L8.3501 9.02451ZM8.7251 8.72451L8.0001 7.92451L7.4751 7.49951L7.9251 8.02451L8.7251 8.72451Z" fill="#010088"/>
<path d="M9.0001 8.3748L8.1001 7.7748L7.4751 7.4998L8.0251 7.8998L9.0001 8.3748ZM9.1751 7.9498L8.1501 7.6248L7.4751 7.4998L8.1251 7.7248L9.1751 7.9498ZM9.2251 7.4998L8.1501 7.4248L7.4751 7.4998L8.1501 7.5498L9.2251 7.4998ZM9.1751 7.0498L8.1251 7.2748L7.4751 7.4998L8.1501 7.3748L9.1751 7.0498Z" fill="#010088"/>
<path d="M9.0001 6.6249L8.0251 7.0999L7.4751 7.4999L8.1001 7.2249L9.0001 6.6249ZM8.7251 6.2749L7.9251 6.9749L7.4751 7.4999L8.0001 7.0749L8.7251 6.2749Z" fill="#010088"/>
<path d="M8.3501 5.97461L7.7751 6.89961L7.4751 7.49961L7.8751 6.94961L8.3501 5.97461Z" fill="#010088"/>
<path d="M7.9501 5.7998L7.6001 6.8248L7.4751 7.4998L7.7251 6.8748L7.9501 5.7998Z" fill="#010088"/>
</svg>
