<svg width="13" height="13" viewBox="0 0 13 13" fill="none" xmlns="http://www.w3.org/2000/svg">
<path d="M2.9079 0C3.28977 0 3.6679 0.075215 4.0207 0.22135C4.3735 0.367486 4.69406 0.58168 4.96409 0.851703C5.23411 1.12173 5.4483 1.44229 5.59444 1.79509C5.74057 2.14789 5.81579 2.52602 5.81579 2.90789V5.81579H2.9079C2.13667 5.81579 1.39704 5.50942 0.851704 4.96409C0.306368 4.41875 1.24334e-06 3.67912 1.24334e-06 2.90789C1.24334e-06 2.13667 0.306368 1.39704 0.851704 0.851703C1.39704 0.306367 2.13667 0 2.9079 0ZM4.44737 4.44737V2.90789C4.44737 2.60342 4.35708 2.30577 4.18792 2.05261C4.01876 1.79944 3.77833 1.60213 3.49703 1.48561C3.21572 1.36909 2.90619 1.3386 2.60756 1.398C2.30893 1.4574 2.03462 1.60402 1.81932 1.81932C1.60402 2.03462 1.4574 2.30893 1.398 2.60756C1.3386 2.90619 1.36909 3.21572 1.48561 3.49703C1.60213 3.77833 1.79944 4.01876 2.05261 4.18792C2.30577 4.35708 2.60342 4.44737 2.9079 4.44737H4.44737ZM2.9079 7.18421H5.81579V10.0921C5.81579 10.6672 5.64524 11.2294 5.32572 11.7076C5.0062 12.1858 4.55205 12.5586 4.0207 12.7786C3.48935 12.9987 2.90467 13.0563 2.34059 12.9441C1.77652 12.8319 1.25838 12.555 0.851704 12.1483C0.445027 11.7416 0.168077 11.2235 0.0558757 10.6594C-0.0563261 10.0953 0.00125994 9.51065 0.221352 8.9793C0.441443 8.44795 0.814155 7.9938 1.29236 7.67428C1.77056 7.35476 2.33277 7.18421 2.9079 7.18421ZM2.9079 8.55263C2.60342 8.55263 2.30577 8.64292 2.05261 8.81208C1.79944 8.98124 1.60213 9.22167 1.48561 9.50297C1.36909 9.78428 1.3386 10.0938 1.398 10.3924C1.4574 10.6911 1.60402 10.9654 1.81932 11.1807C2.03462 11.396 2.30893 11.5426 2.60756 11.602C2.90619 11.6614 3.21572 11.6309 3.49703 11.5144C3.77833 11.3979 4.01876 11.2006 4.18792 10.9474C4.35708 10.6942 4.44737 10.3966 4.44737 10.0921V8.55263H2.9079ZM10.0921 0C10.8633 0 11.603 0.306367 12.1483 0.851703C12.6936 1.39704 13 2.13667 13 2.90789C13 3.67912 12.6936 4.41875 12.1483 4.96409C11.603 5.50942 10.8633 5.81579 10.0921 5.81579H7.18421V2.90789C7.18421 2.13667 7.49058 1.39704 8.03591 0.851703C8.58125 0.306367 9.32088 0 10.0921 0ZM10.0921 4.44737C10.3966 4.44737 10.6942 4.35708 10.9474 4.18792C11.2006 4.01876 11.3979 3.77833 11.5144 3.49703C11.6309 3.21572 11.6614 2.90619 11.602 2.60756C11.5426 2.30893 11.396 2.03462 11.1807 1.81932C10.9654 1.60402 10.6911 1.4574 10.3924 1.398C10.0938 1.3386 9.78427 1.36909 9.50297 1.48561C9.22167 1.60213 8.98124 1.79944 8.81208 2.05261C8.64292 2.30577 8.55263 2.60342 8.55263 2.90789V4.44737H10.0921ZM7.18421 7.18421H10.0921C10.6672 7.18421 11.2294 7.35476 11.7076 7.67428C12.1858 7.9938 12.5586 8.44795 12.7786 8.9793C12.9987 9.51065 13.0563 10.0953 12.9441 10.6594C12.8319 11.2235 12.555 11.7416 12.1483 12.1483C11.7416 12.555 11.2235 12.8319 10.6594 12.9441C10.0953 13.0563 9.51065 12.9987 8.9793 12.7786C8.44795 12.5586 7.9938 12.1858 7.67428 11.7076C7.35476 11.2294 7.18421 10.6672 7.18421 10.0921V7.18421ZM8.55263 8.55263V10.0921C8.55263 10.3966 8.64292 10.6942 8.81208 10.9474C8.98124 11.2006 9.22167 11.3979 9.50297 11.5144C9.78427 11.6309 10.0938 11.6614 10.3924 11.602C10.6911 11.5426 10.9654 11.396 11.1807 11.1807C11.396 10.9654 11.5426 10.6911 11.602 10.3924C11.6614 10.0938 11.6309 9.78428 11.5144 9.50297C11.3979 9.22167 11.2006 8.98124 10.9474 8.81208C10.6942 8.64292 10.3966 8.55263 10.0921 8.55263H8.55263Z" fill="white"/>
</svg>
