<svg width="16" height="16" viewBox="0 0 16 16" fill="none" xmlns="http://www.w3.org/2000/svg">
<path d="M12.8381 9.94189C12.2387 10.3063 11.5502 10.4979 10.8487 10.4956C10.2611 10.491 9.68003 10.3708 9.13874 10.1419C8.72156 10.7308 8.49829 11.4352 8.49999 12.1569V14C8.50014 14.0686 8.4862 14.1364 8.45903 14.1993C8.43185 14.2623 8.39203 14.3189 8.34204 14.3658C8.29204 14.4127 8.23294 14.4488 8.1684 14.4719C8.10386 14.495 8.03526 14.5046 7.96687 14.5C7.83835 14.4888 7.71881 14.4295 7.63222 14.3338C7.54564 14.2382 7.4984 14.1134 7.49999 13.9844V13.2069L5.08624 10.7931C4.72743 10.927 4.34795 10.997 3.96499 11C3.43778 11.0014 2.92043 10.8571 2.46999 10.5831C1.10812 9.75564 0.374993 7.85127 0.516868 5.48689C0.524011 5.36457 0.575822 5.24913 0.662464 5.16249C0.749106 5.07585 0.864546 5.02404 0.986868 5.01689C3.35124 4.87752 5.25562 5.60814 6.08062 6.97002C6.40475 7.50382 6.54626 8.12865 6.48374 8.75002C6.47986 8.79816 6.46211 8.84415 6.43264 8.88242C6.40318 8.92069 6.36325 8.9496 6.3177 8.96567C6.27215 8.98173 6.22293 8.98426 6.17597 8.97294C6.12902 8.96162 6.08635 8.93695 6.05312 8.90189L4.85312 7.64564C4.75859 7.55583 4.63271 7.5065 4.50233 7.50817C4.37195 7.50984 4.24738 7.56238 4.15518 7.65458C4.06298 7.74678 4.01044 7.87135 4.00877 8.00173C4.0071 8.13211 4.05643 8.25799 4.14624 8.35252L7.51374 11.8056C7.51749 11.7569 7.52187 11.7081 7.52687 11.66C7.63621 10.733 8.04527 9.86701 8.69187 9.19377L11.8537 5.85252C11.9476 5.75878 12.0003 5.63161 12.0004 5.49899C12.0004 5.36637 11.9478 5.23915 11.8541 5.14533C11.7603 5.05151 11.6331 4.99877 11.5005 4.99871C11.3679 4.99865 11.2407 5.05128 11.1469 5.14502L8.08437 8.38377C8.05371 8.41624 8.01492 8.4399 7.97202 8.45231C7.92913 8.46471 7.88369 8.4654 7.84044 8.4543C7.79718 8.4432 7.75769 8.42072 7.72607 8.38919C7.69445 8.35766 7.67185 8.31824 7.66062 8.27502C7.36437 7.18252 7.49499 6.09502 8.06062 5.16127C9.17687 3.31877 11.7744 2.33252 15.0094 2.52252C15.1317 2.52966 15.2471 2.58147 15.3338 2.66811C15.4204 2.75476 15.4722 2.8702 15.4794 2.99252C15.6669 6.22814 14.6806 8.82564 12.8381 9.94189Z" fill="#35A44F"/>
</svg>
