<svg width="21" height="18" viewBox="0 0 21 18" fill="none" xmlns="http://www.w3.org/2000/svg">
<path d="M16 15C16.55 15 17.021 14.8043 17.413 14.413C17.805 14.0217 18.0007 13.5507 18 13C17.9993 12.4493 17.8037 11.9787 17.413 11.588C17.0223 11.1973 16.5513 11.0013 16 11C15.4487 10.9987 14.978 11.1947 14.588 11.588C14.198 11.9813 14.002 12.452 14 13C13.998 13.548 14.194 14.019 14.588 14.413C14.982 14.807 15.4527 15.0027 16 15ZM15.8 18C15.5667 18 15.3627 17.925 15.188 17.775C15.0133 17.625 14.9007 17.4333 14.85 17.2L14.7 16.5C14.5 16.4167 14.3127 16.3293 14.138 16.238C13.9633 16.1467 13.784 16.034 13.6 15.9L12.875 16.125C12.6583 16.1917 12.446 16.1833 12.238 16.1C12.03 16.0167 11.8673 15.8833 11.75 15.7L11.55 15.35C11.4333 15.15 11.3917 14.9333 11.425 14.7C11.4583 14.4667 11.5667 14.275 11.75 14.125L12.3 13.65C12.2667 13.45 12.25 13.2333 12.25 13C12.25 12.7667 12.2667 12.55 12.3 12.35L11.75 11.875C11.5667 11.725 11.4583 11.5377 11.425 11.313C11.3917 11.0883 11.4333 10.8757 11.55 10.675L11.775 10.3C11.8917 10.1167 12.05 9.98333 12.25 9.9C12.45 9.81667 12.6583 9.80833 12.875 9.875L13.6 10.1C13.7833 9.96667 13.9627 9.85433 14.138 9.763C14.3133 9.67167 14.5007 9.584 14.7 9.5L14.85 8.775C14.9 8.54167 15.0123 8.35433 15.187 8.213C15.3617 8.07167 15.566 8.00067 15.8 8H16.2C16.4333 8 16.6377 8.075 16.813 8.225C16.9883 8.375 17.1007 8.56667 17.15 8.8L17.3 9.5C17.5 9.58333 17.6873 9.67067 17.862 9.762C18.0367 9.85333 18.216 9.966 18.4 10.1L19.125 9.875C19.3417 9.80833 19.5543 9.81667 19.763 9.9C19.9717 9.98333 20.134 10.1167 20.25 10.3L20.45 10.65C20.5667 10.85 20.6083 11.0667 20.575 11.3C20.5417 11.5333 20.4333 11.725 20.25 11.875L19.7 12.35C19.7333 12.55 19.75 12.7667 19.75 13C19.75 13.2333 19.7333 13.45 19.7 13.65L20.25 14.125C20.4333 14.275 20.5417 14.4627 20.575 14.688C20.6083 14.9133 20.5667 15.1257 20.45 15.325L20.225 15.7C20.1083 15.8833 19.95 16.0167 19.75 16.1C19.55 16.1833 19.3417 16.1917 19.125 16.125L18.4 15.9C18.2167 16.0333 18.0377 16.1457 17.863 16.237C17.6883 16.3283 17.5007 16.416 17.3 16.5L17.15 17.225C17.1 17.4583 16.9877 17.646 16.813 17.788C16.6383 17.93 16.434 18.0007 16.2 18H15.8ZM2 14V2V6.3V6V14ZM2 16C1.45 16 0.979333 15.8043 0.588 15.413C0.196667 15.0217 0.000666667 14.5507 0 14V2C0 1.45 0.196 0.979333 0.588 0.588C0.98 0.196666 1.45067 0.000666667 2 0H7.175C7.44167 0 7.696 0.0500001 7.938 0.15C8.18 0.25 8.39233 0.391666 8.575 0.575L10 2H18C18.55 2 19.021 2.196 19.413 2.588C19.805 2.98 20.0007 3.45067 20 4V6C20 6.28333 19.904 6.521 19.712 6.713C19.52 6.905 19.2827 7.00067 19 7C18.7173 6.99933 18.48 6.90333 18.288 6.712C18.096 6.52067 18 6.28333 18 6V4H9.175L7.175 2H2V14H9C9.28333 14 9.521 14.096 9.713 14.288C9.905 14.48 10.0007 14.7173 10 15C9.99933 15.2827 9.90333 15.5203 9.712 15.713C9.52067 15.9057 9.28333 16.0013 9 16H2Z" fill="white"/>
</svg>
