<svg width="13" height="18" viewBox="0 0 13 18" fill="none" xmlns="http://www.w3.org/2000/svg">
<path d="M1.00215 9H4.75215C5.92415 9 7.02415 8.6 7.81315 7.923C8.26686 7.54367 8.61479 7.05347 8.82315 6.5H1.00115C0.735934 6.5 0.481581 6.39464 0.294044 6.20711C0.106508 6.01957 0.001151 5.76522 0.001151 5.5C0.001151 5.23478 0.106508 4.98043 0.294044 4.79289C0.481581 4.60536 0.735934 4.5 1.00115 4.5H8.82315C8.61479 3.94653 8.26686 3.45633 7.81315 3.077C7.02315 2.401 5.92415 2 4.75215 2H1.00115C0.735934 2 0.481581 1.89464 0.294044 1.70711C0.106508 1.51957 0.001151 1.26522 0.001151 1C0.001151 0.734784 0.106508 0.48043 0.294044 0.292893C0.481581 0.105357 0.735934 0 1.00115 0H4.75115L4.93115 0.00200009L5.00115 0H12.0012C12.2664 0 12.5207 0.105357 12.7083 0.292893C12.8958 0.48043 13.0012 0.734784 13.0012 1C13.0012 1.26522 12.8958 1.51957 12.7083 1.70711C12.5207 1.89464 12.2664 2 12.0012 2H9.57615C10.2376 2.69642 10.6949 3.56126 10.8982 4.5H12.0012C12.2664 4.5 12.5207 4.60536 12.7083 4.79289C12.8958 4.98043 13.0012 5.23478 13.0012 5.5C13.0012 5.76522 12.8958 6.01957 12.7083 6.20711C12.5207 6.39464 12.2664 6.5 12.0012 6.5H10.8982C10.6622 7.627 10.0332 8.654 9.11515 9.441C7.93515 10.452 6.36415 11 4.75115 11H3.71315L9.85115 16.24C10.0457 16.4143 10.1643 16.6577 10.1816 16.9183C10.199 17.1789 10.1137 17.4359 9.94404 17.6344C9.77437 17.833 9.53377 17.9573 9.27367 17.9807C9.01357 18.0042 8.75461 17.925 8.55215 17.76L0.355151 10.763L0.345151 10.754C0.168501 10.6015 0.0510088 10.3918 0.0131768 10.1615C-0.0246551 9.93125 0.0195758 9.695 0.138151 9.494C0.226503 9.34339 0.352749 9.21855 0.50433 9.13188C0.655911 9.04521 0.827543 8.99974 1.00215 9Z" fill="white"/>
</svg>
