<svg width="10" height="13" viewBox="0 0 10 13" fill="none" xmlns="http://www.w3.org/2000/svg">
<path d="M1.07143 2.16662C0.787268 2.16662 0.514746 2.05248 0.313814 1.84932C0.112882 1.64616 0 1.37062 0 1.08331C0 0.795997 0.112882 0.520454 0.313814 0.317294C0.514746 0.114134 0.787268 0 1.07143 0H8.92857C9.21273 0 9.48525 0.114134 9.68619 0.317294C9.88712 0.520454 10 0.795997 10 1.08331C10 1.37062 9.88712 1.64616 9.68619 1.84932C9.48525 2.05248 9.21273 2.16662 8.92857 2.16662H6.41286C6.69347 2.61032 6.89823 3.09861 7.01857 3.61103H8.92857C9.21273 3.61103 9.48525 3.72516 9.68619 3.92832C9.88712 4.13148 10 4.40703 10 4.69434C10 4.98165 9.88712 5.25719 9.68619 5.46035C9.48525 5.66351 9.21273 5.77765 8.92857 5.77765H7.01857C6.83882 6.54185 6.47256 7.24833 5.95325 7.83257C5.43394 8.41681 4.77813 8.86018 4.04571 9.12218L6.69429 11.0346C6.80882 11.1173 6.90612 11.222 6.98063 11.3427C7.05514 11.4634 7.10541 11.5978 7.12855 11.7382C7.1517 11.8785 7.14728 12.0221 7.11554 12.1608C7.0838 12.2994 7.02537 12.4304 6.94357 12.5462C6.86178 12.662 6.75822 12.7603 6.63883 12.8357C6.51943 12.911 6.38652 12.9618 6.2477 12.9852C6.10888 13.0086 5.96685 13.0042 5.82974 12.9721C5.69262 12.94 5.5631 12.8809 5.44857 12.7982L0.462143 9.19657C0.324115 9.10148 0.210336 8.97467 0.130131 8.82654C0.0499247 8.67841 0.00557434 8.51317 0.000714234 8.34437C-0.00759751 8.07608 0.0815952 7.81402 0.251429 7.60772C0.46 7.35711 0.759286 7.21772 1.08571 7.22206H2.5C2.97318 7.22216 3.43667 7.08648 3.8366 6.83079C4.23654 6.5751 4.5565 6.20991 4.75929 5.77765H1.07143C0.787268 5.77765 0.514746 5.66351 0.313814 5.46035C0.112882 5.25719 0 4.98165 0 4.69434C0 4.40703 0.112882 4.13148 0.313814 3.92832C0.514746 3.72516 0.787268 3.61103 1.07143 3.61103H4.75929C4.5565 3.17877 4.23654 2.81357 3.8366 2.55788C3.43667 2.3022 2.97318 2.16652 2.5 2.16662H1.07143Z" fill="white"/>
</svg>
