<svg width="19" height="15" viewBox="0 0 19 15" fill="none" xmlns="http://www.w3.org/2000/svg">
<path d="M2.50853e-06 11.8749V5.03844C-0.00015899 5.00801 0.00747998 4.97804 0.0221902 4.9514C0.0369004 4.92476 0.0581915 4.90233 0.0840326 4.88625C0.109874 4.87018 0.139403 4.86099 0.169803 4.85957C0.200204 4.85815 0.230461 4.86454 0.25769 4.87813L7.90638 8.70307C8.40116 8.95054 8.94678 9.07939 9.5 9.07939C10.0532 9.07939 10.5988 8.95054 11.0936 8.70307L18.7411 4.87932C18.7683 4.8655 18.7986 4.85888 18.8291 4.86011C18.8595 4.86134 18.8892 4.87037 18.9152 4.88634C18.9411 4.90231 18.9626 4.92468 18.9774 4.95131C18.9923 4.97795 19.0001 5.00795 19 5.03844V11.8749C19 12.5048 18.7498 13.1089 18.3044 13.5543C17.859 13.9997 17.2549 14.2499 16.625 14.2499H2.375C1.74511 14.2499 1.14102 13.9997 0.695624 13.5543C0.250225 13.1089 2.50853e-06 12.5048 2.50853e-06 11.8749Z" fill="white"/>
<path d="M0 2.375V3.45206C4.52082e-05 3.48512 0.00928861 3.51751 0.0266956 3.54561C0.0441025 3.57372 0.0689865 3.59642 0.0985627 3.61119L7.90637 7.51569C8.40116 7.76316 8.94678 7.892 9.5 7.892C10.0532 7.892 10.5988 7.76316 11.0936 7.51569L18.9014 3.61119C18.931 3.59642 18.9559 3.57372 18.9733 3.54561C18.9907 3.51751 19 3.48512 19 3.45206V2.375C19 1.74511 18.7498 1.14102 18.3044 0.695621C17.859 0.250222 17.2549 0 16.625 0H2.375C1.74511 0 1.14102 0.250222 0.695621 0.695621C0.250222 1.14102 0 1.74511 0 2.375Z" fill="white" fill-opacity="0.25"/>
</svg>
