<svg width="18" height="18" viewBox="0 0 18 18" fill="none" xmlns="http://www.w3.org/2000/svg">
<path fill-rule="evenodd" clip-rule="evenodd" d="M15.3641 2.63606C16.1998 3.47179 16.8627 4.46395 17.315 5.55588C17.7673 6.64782 18.0001 7.81815 18.0001 9.00006C18.0001 10.182 17.7673 11.3523 17.315 12.4442C16.8627 13.5362 16.1998 14.5283 15.3641 15.3641C14.5283 16.1998 13.5362 16.8627 12.4442 17.315C11.3523 17.7673 10.182 18.0001 9.00006 18.0001C7.81815 18.0001 6.64782 17.7673 5.55588 17.315C4.46395 16.8627 3.47179 16.1998 2.63606 15.3641C0.948218 13.6762 -1.77843e-08 11.387 0 9.00006C1.77843e-08 6.61309 0.948218 4.32389 2.63606 2.63606C4.32389 0.948218 6.61309 1.77843e-08 9.00006 0C11.387 -1.77843e-08 13.6762 0.948218 15.3641 2.63606ZM13.1921 14.6061L3.39306 4.80805C2.38397 6.1563 1.89468 7.8231 2.0149 9.50285C2.13512 11.1826 2.85678 12.7627 4.04758 13.9535C5.23838 15.1443 6.81852 15.866 8.49827 15.9862C10.178 16.1064 11.8448 15.6171 13.1931 14.6081M13.9501 4.05006C15.1405 5.24024 15.8622 6.81955 15.9828 8.49858C16.1035 10.1776 15.6151 11.8439 14.6071 13.1921L4.80706 3.39306C6.15531 2.38476 7.8218 1.89617 9.50105 2.01684C11.1803 2.13751 12.7598 2.85935 13.9501 4.05006Z" fill="white"/>
</svg>
