<svg width="16" height="16" viewBox="0 0 16 16" fill="none" xmlns="http://www.w3.org/2000/svg">
<path d="M14 4.6095C14.266 4.76309 14.4869 4.984 14.6405 5.25003C14.7941 5.51605 14.875 5.81782 14.875 6.125V13.125C14.875 13.5891 14.6906 14.0342 14.3624 14.3624C14.0342 14.6906 13.5891 14.875 13.125 14.875H6.125C5.66087 14.875 5.21575 14.6906 4.88756 14.3624C4.55937 14.0342 4.375 13.5891 4.375 13.125V6.125C4.375 5.66087 4.55937 5.21575 4.88756 4.88756C5.21575 4.55937 5.66087 4.375 6.125 4.375H8.75" stroke="white" stroke-width="1.75" stroke-linecap="round" stroke-linejoin="round"/>
<path d="M1.75 11.1423C1.48372 10.9885 1.26264 10.7673 1.10903 10.501C0.95542 10.2346 0.874701 9.93248 0.875001 9.625V2.625C0.875001 2.16087 1.05938 1.71575 1.38756 1.38756C1.71575 1.05937 2.16087 0.875 2.625 0.875H9.625C10.0891 0.875 10.5342 1.05937 10.8624 1.38756C11.1906 1.71575 11.375 2.16087 11.375 2.625V9.625C11.375 10.0891 11.1906 10.5342 10.8624 10.8624C10.5342 11.1906 10.0891 11.375 9.625 11.375H7" stroke="white" stroke-width="1.75" stroke-linecap="round" stroke-linejoin="round"/>
</svg>
