<svg width="652" height="652" viewBox="0 0 652 652" fill="none" xmlns="http://www.w3.org/2000/svg">
<path d="M241.649 10.0459C347.33 -11.7841 455.951 7.09724 561.744 18.46L435.063 123.212C435.063 123.212 385.282 113.247 353.14 113.754C321.303 114.256 294.982 119.547 272.549 125.569C162.37 155.144 96.9839 268.596 126.506 378.969C156.028 489.344 269.28 554.845 379.46 525.27C558.032 477.336 559.491 265.194 494.991 297.138L228.342 433.373L579.008 129.977C579.008 129.977 589.918 139.641 596.037 146.668C603.78 155.562 613.489 171.308 613.585 171.463L613.515 171.525C624.994 193.092 634.228 216.298 640.813 240.919C687.401 415.091 584.226 594.123 410.36 640.794C236.493 687.464 57.7735 584.098 11.1859 409.924C-35.4011 235.75 67.7822 56.7156 241.649 10.0459Z" fill="white"/>
</svg>
