<svg width="64" height="64" viewBox="0 0 64 64" fill="none" xmlns="http://www.w3.org/2000/svg">
<path d="M0 9C0 4.02944 4.02944 0 9 0H55C59.9706 0 64 4.02944 64 9V55C64 59.9706 59.9706 64 55 64H9C4.02944 64 0 59.9706 0 55V9Z" fill="white" fill-opacity="0.1"/>
<path d="M9 0.25H55C59.8325 0.25 63.75 4.16751 63.75 9V55C63.75 59.8325 59.8325 63.75 55 63.75H9C4.16751 63.75 0.25 59.8325 0.25 55V9C0.25 4.16751 4.16751 0.25 9 0.25Z" stroke="url(#paint0_linear_672_86)" stroke-opacity="0.2" stroke-width="0.5"/>
<path d="M27.7132 14.5701C33.7104 13.3313 39.8745 14.4028 45.8781 15.0476L38.6891 20.9921C38.6891 20.9921 35.8642 20.4266 34.0401 20.4554C32.2334 20.4839 30.7398 20.7841 29.4667 21.1258C23.2143 22.8042 19.5037 29.2424 21.179 35.5059C22.8544 41.7695 29.2812 45.4866 35.5338 43.8083C45.6675 41.0881 45.7503 29.0493 42.09 30.8621L26.9581 38.5932L46.8578 21.376C46.8578 21.376 47.4769 21.9244 47.8242 22.3232C48.2636 22.8279 48.8146 23.7215 48.82 23.7303L48.816 23.7338C49.4674 24.9577 49.9915 26.2746 50.3652 27.6718C53.0089 37.5558 47.1539 47.7156 37.2873 50.3641C27.4206 53.0125 17.2786 47.1467 14.6348 37.2626C11.991 27.3784 17.8465 17.2185 27.7132 14.5701Z" fill="white" fill-opacity="0.95"/>
<defs>
<linearGradient id="paint0_linear_672_86" x1="7.84226e-07" y1="5.03609" x2="70.0626" y2="14.6135" gradientUnits="userSpaceOnUse">
<stop stop-color="white"/>
<stop offset="1" stop-color="#999999"/>
</linearGradient>
</defs>
</svg>
