<svg width="139" height="139" viewBox="0 0 139 139" fill="none" xmlns="http://www.w3.org/2000/svg">
<rect width="139" height="139" rx="16" fill="url(#paint0_radial_656_10)"/>
<rect x="0.5" y="0.5" width="138" height="138" rx="15.5" stroke="url(#paint1_linear_656_10)" stroke-opacity="0.2"/>
<path d="M61.6083 38.9553C71.4956 36.8794 81.658 38.6749 91.5558 39.7554L79.7037 49.7165C79.7037 49.7165 75.0463 48.7689 72.0391 48.8171C69.0605 48.8649 66.598 49.368 64.4992 49.9406C54.1911 52.753 48.0736 63.5413 50.8357 74.037C53.5977 84.5327 64.1934 90.7613 74.5016 87.949C91.2085 83.3908 91.345 63.2178 85.3105 66.2555L60.3633 79.2103L93.171 50.3598C93.171 50.3598 94.1917 51.2787 94.7642 51.947C95.4886 52.7927 96.397 54.2901 96.4059 54.3048L96.3994 54.3107C97.4733 56.3615 98.3373 58.5682 98.9534 60.9094C103.312 77.4719 93.6592 94.4964 77.3926 98.9344C61.1259 103.372 44.4052 93.543 40.0465 76.9805C35.6879 60.4179 45.3416 43.3932 61.6083 38.9553Z" fill="white" fill-opacity="0.95"/>
<defs>
<radialGradient id="paint0_radial_656_10" cx="0" cy="0" r="1" gradientTransform="matrix(85.068 -2.24194 0.137888 85.068 69.5 69.5)" gradientUnits="userSpaceOnUse">
<stop stop-color="white" stop-opacity="0.08"/>
<stop offset="1" stop-color="white" stop-opacity="0.13"/>
</radialGradient>
<linearGradient id="paint1_linear_656_10" x1="1.70324e-06" y1="10.9378" x2="152.167" y2="31.7388" gradientUnits="userSpaceOnUse">
<stop stop-color="white"/>
<stop offset="1" stop-color="#999999"/>
</linearGradient>
</defs>
</svg>
